<svg width="64" height="64" viewBox="0 0 64 64" fill="none" xmlns="http://www.w3.org/2000/svg">
<path opacity="0.8" d="M37.5734 64C29.85 64 23.1355 62.5844 17.4299 59.7531C11.7939 56.9218 7.47989 53.037 4.48793 48.0988C1.49598 43.0946 0 37.4979 0 31.3086C0 25.3169 1.66993 19.9506 5.00978 15.2099C8.34964 10.4033 12.9072 6.68313 18.6823 4.04938C24.4575 1.34979 30.8937 0 37.9909 0C41.2611 0 44.601 0.296296 48.0104 0.888889C51.4199 1.41564 54.0987 2.07407 56.047 2.8642C56.6036 3.12757 56.9515 3.39095 57.0907 3.65432C57.2298 3.9177 57.3342 4.41152 57.4038 5.1358L58.2387 18.0741C58.2387 18.3374 58.0648 18.5021 57.7169 18.5679C57.369 18.6337 57.1255 18.5679 56.9863 18.3704C54.551 13.3663 51.3503 9.48148 47.3842 6.71605C43.4181 3.88478 38.8258 2.46914 33.6073 2.46914C26.858 2.46914 21.6047 4.74074 17.8474 9.28395C14.09 13.7613 12.2113 19.8848 12.2113 27.6543C12.2113 34.4362 13.4638 40.428 15.9687 45.6296C18.4736 50.8313 21.883 54.8477 26.197 57.679C30.5806 60.5103 35.5208 61.9259 41.0176 61.9259C43.5225 61.9259 45.436 61.5967 46.758 60.9383C48.08 60.214 48.9846 59.0617 49.4716 57.4815C50.0283 55.8354 50.3066 53.465 50.3066 50.3704C50.3066 47.144 49.9935 44.8066 49.3672 43.358C48.741 41.9095 47.593 40.9547 45.923 40.4938C44.2531 40.0329 41.5743 39.8025 37.8865 39.8025C37.469 39.8025 37.2603 39.5391 37.2603 39.0123C37.2603 38.8148 37.2951 38.6502 37.3646 38.5185C37.5038 38.321 37.643 38.2222 37.7821 38.2222C43.5573 38.5514 48.3583 38.7161 52.1853 38.7161C55.8034 38.7161 59.5608 38.6173 63.4573 38.4198C63.7356 38.4198 63.9095 38.6502 63.9791 39.1111C64.0487 39.572 63.9443 39.8025 63.666 39.8025C62.5527 39.7366 61.8569 40 61.5786 40.5926C61.3003 41.1852 61.1611 42.535 61.1611 44.642V51.358C61.1611 54.321 61.2655 56.3951 61.4742 57.5802C61.683 58.7654 61.7873 59.5885 61.7873 60.0494C61.7873 60.4444 61.7178 60.7078 61.5786 60.8395C61.509 60.9712 61.2655 61.1029 60.848 61.2346C51.9417 63.0782 44.1835 64 37.5734 64Z" fill="#FAFAFA"/>
</svg>
