<svg width="16" height="16" viewBox="0 0 16 16" fill="none" xmlns="http://www.w3.org/2000/svg">
<path opacity="0.8" d="M9.39335 16C7.46249 16 5.78387 15.6461 4.35747 14.9383C2.94847 14.2305 1.86997 13.2593 1.12198 12.0247C0.373994 10.7737 0 9.37449 0 7.82716C0 6.32922 0.417482 4.98765 1.25245 3.80247C2.08741 2.60082 3.22679 1.67078 4.67058 1.01235C6.11437 0.337449 7.72342 0 9.49772 0C10.3153 0 11.1502 0.0740741 12.0026 0.222222C12.855 0.35391 13.5247 0.518519 14.0117 0.716049C14.1509 0.781893 14.2379 0.847736 14.2727 0.91358C14.3075 0.979424 14.3336 1.10288 14.3509 1.28395L14.5597 4.51852C14.5597 4.58436 14.5162 4.62551 14.4292 4.64198C14.3422 4.65844 14.2814 4.64198 14.2466 4.59259C13.6377 3.34156 12.8376 2.37037 11.8461 1.67901C10.8545 0.971194 9.70646 0.617285 8.40183 0.617285C6.7145 0.617285 5.40117 1.18519 4.46184 2.32099C3.5225 3.44033 3.05284 4.97119 3.05284 6.91358C3.05284 8.60905 3.36595 10.107 3.99217 11.4074C4.61839 12.7078 5.47075 13.7119 6.54925 14.4198C7.64514 15.1276 8.88019 15.4815 10.2544 15.4815C10.8806 15.4815 11.359 15.3992 11.6895 15.2346C12.02 15.0535 12.2461 14.7654 12.3679 14.3704C12.5071 13.9588 12.5766 13.3663 12.5766 12.5926C12.5766 11.786 12.4984 11.2016 12.3418 10.8395C12.1853 10.4774 11.8982 10.2387 11.4808 10.1235C11.0633 10.0082 10.3936 9.95062 9.47162 9.95062C9.36725 9.95062 9.31507 9.88477 9.31507 9.75309C9.31507 9.7037 9.32377 9.66255 9.34116 9.62963C9.37595 9.58025 9.41074 9.55556 9.44553 9.55556C10.8893 9.63786 12.0896 9.67901 13.0463 9.67901C13.9509 9.67901 14.8902 9.65432 15.8643 9.60494C15.9339 9.60494 15.9774 9.66255 15.9948 9.77778C16.0122 9.893 15.9861 9.95062 15.9165 9.95062C15.6382 9.93416 15.4642 10 15.3946 10.1481C15.3251 10.2963 15.2903 10.6337 15.2903 11.1605V12.8395C15.2903 13.5802 15.3164 14.0988 15.3686 14.3951C15.4207 14.6914 15.4468 14.8971 15.4468 15.0123C15.4468 15.1111 15.4294 15.177 15.3946 15.2099C15.3773 15.2428 15.3164 15.2757 15.212 15.3086C12.9854 15.7695 11.0459 16 9.39335 16Z" fill="#FAFAFA"/>
</svg>
