<svg width="32" height="32" viewBox="0 0 32 32" fill="none" xmlns="http://www.w3.org/2000/svg">
<path opacity="0.8" d="M18.7867 32C14.925 32 11.5677 31.2922 8.71494 29.8765C5.89693 28.4609 3.73994 26.5185 2.24397 24.0494C0.747989 21.5473 0 18.749 0 15.6543C0 12.6584 0.834964 9.97531 2.50489 7.60494C4.17482 5.20165 6.45358 3.34156 9.34116 2.02469C12.2287 0.674897 15.4468 0 18.9954 0C20.6306 0 22.3005 0.148148 24.0052 0.444445C25.7099 0.70782 27.0494 1.03704 28.0235 1.4321C28.3018 1.56379 28.4758 1.69547 28.5453 1.82716C28.6149 1.95885 28.6671 2.20576 28.7019 2.5679L29.1194 9.03704C29.1194 9.16872 29.0324 9.25103 28.8584 9.28395C28.6845 9.31687 28.5627 9.28395 28.4931 9.18519C27.2755 6.68313 25.6751 4.74074 23.6921 3.35803C21.7091 1.94239 19.4129 1.23457 16.8037 1.23457C13.429 1.23457 10.8023 2.37037 8.92368 4.64197C7.04501 6.88066 6.10567 9.94239 6.10567 13.8272C6.10567 17.2181 6.7319 20.214 7.98434 22.8148C9.23679 25.4156 10.9415 27.4239 13.0985 28.8395C15.2903 30.2551 17.7604 30.963 20.5088 30.963C21.7613 30.963 22.718 30.7984 23.379 30.4691C24.04 30.107 24.4923 29.5309 24.7358 28.7407C25.0141 27.9177 25.1533 26.7325 25.1533 25.1852C25.1533 23.572 24.9967 22.4033 24.6836 21.679C24.3705 20.9547 23.7965 20.4774 22.9615 20.2469C22.1265 20.0165 20.7871 19.9012 18.9432 19.9012C18.7345 19.9012 18.6301 19.7695 18.6301 19.5062C18.6301 19.4074 18.6475 19.3251 18.6823 19.2593C18.7519 19.1605 18.8215 19.1111 18.8911 19.1111C21.7786 19.2757 24.1792 19.358 26.0926 19.358C27.9017 19.358 29.7804 19.3086 31.7286 19.2099C31.8678 19.2099 31.9548 19.3251 31.9896 19.5556C32.0244 19.786 31.9722 19.9012 31.833 19.9012C31.2764 19.8683 30.9285 20 30.7893 20.2963C30.6501 20.5926 30.5806 21.2675 30.5806 22.321V25.679C30.5806 27.1605 30.6327 28.1975 30.7371 28.7901C30.8415 29.3827 30.8937 29.7942 30.8937 30.0247C30.8937 30.2222 30.8589 30.3539 30.7893 30.4198C30.7545 30.4856 30.6327 30.5514 30.424 30.6173C25.9709 31.5391 22.0918 32 18.7867 32Z" fill="#FAFAFA"/>
</svg>
